<?xml version="1.0" encoding="UTF-8" standalone="no"?>
<svg
   xmlns:dc="http://purl.org/dc/elements/1.1/"
   xmlns:cc="http://creativecommons.org/ns#"
   xmlns:rdf="http://www.w3.org/1999/02/22-rdf-syntax-ns#"
   xmlns:svg="http://www.w3.org/2000/svg"
   xmlns="http://www.w3.org/2000/svg"
   xmlns:sodipodi="http://sodipodi.sourceforge.net/DTD/sodipodi-0.dtd"
   xmlns:inkscape="http://www.inkscape.org/namespaces/inkscape"
   viewBox="0 0 1000 290.10926"
   version="1.1"
   id="svg4647"
   sodipodi:docname="A.svg"
   width="1000"
   height="290.10925"
   inkscape:version="0.92.4 (5da689c313, 2019-01-14)">
  <metadata
     id="metadata4653">
    <rdf:RDF>
      <cc:Work
         rdf:about="">
        <dc:format>image/svg+xml</dc:format>
        <dc:type
           rdf:resource="http://purl.org/dc/dcmitype/StillImage" />
        <dc:title></dc:title>
      </cc:Work>
    </rdf:RDF>
  </metadata>
  <defs
     id="defs4651" />
  <sodipodi:namedview
     pagecolor="#ffffff"
     bordercolor="#111111"
     borderopacity="1"
     objecttolerance="10"
     gridtolerance="10"
     guidetolerance="10"
     inkscape:pageopacity="0"
     inkscape:pageshadow="2"
     inkscape:window-width="1920"
     inkscape:window-height="1017"
     id="namedview4649"
     showgrid="false"
     fit-margin-top="0"
     fit-margin-left="0"
     fit-margin-right="0"
     fit-margin-bottom="0"
     inkscape:zoom="0.62696518"
     inkscape:cx="909.76695"
     inkscape:cy="82.930043"
     inkscape:window-x="1912"
     inkscape:window-y="-8"
     inkscape:window-maximized="1"
     inkscape:current-layer="svg4647" />
  <path
     inkscape:connector-curvature="0"
     style="fill:#000000;fill-opacity:1;stroke-width:1.89415467"
     id="path4627"
     d="M 107.0008,203.16756 156.58976,79.100434 h 57.65807 L 127.11672,283.32819 H 85.880971 L 0,79.100434 h 57.69595 z" />
  <path
     inkscape:connector-curvature="0"
     style="fill:#000000;fill-opacity:1;stroke-width:1.89415467"
     id="path4629"
     d="m 443.23219,177.44494 c 0,66.06812 -47.35387,112.66432 -112.94845,112.66432 -65.59457,0 -112.96738,-46.5962 -112.96738,-112.66432 0,-61.76838 54.17282,-105.125579 112.96738,-105.125579 58.79456,0 112.94845,43.357199 112.94845,105.125579 z m -170.6444,0.24624 c 0,35.21234 26.00675,60.9539 57.69595,60.9539 31.68921,0 57.67701,-25.74156 57.67701,-60.9539 0,-28.16608 -25.9878,-53.8887 -57.67701,-53.8887 -31.6892,0 -57.79065,25.72262 -57.79065,53.8887 z" />
  <path
     inkscape:connector-curvature="0"
     style="fill:#000000;fill-opacity:1;stroke-width:1.89415467"
     id="path4631"
     d="m 683.37311,177.44494 c 0,66.06812 -47.35387,112.66432 -112.94844,112.66432 -65.59458,0 -112.94844,-46.5962 -112.94844,-112.66432 0,-61.76838 54.17282,-105.125579 112.94844,-105.125579 58.77562,0 112.94844,43.357199 112.94844,105.125579 z m -170.64439,0.24624 c 0,35.21234 26.00674,60.9539 57.69595,60.9539 31.68921,0 57.69595,-25.74156 57.69595,-60.9539 0,-28.16608 -26.00674,-53.8887 -57.69595,-53.8887 -31.68921,0 -57.69595,25.72262 -57.69595,53.8887 z" />
  <path
     inkscape:connector-curvature="0"
     style="fill:#000000;fill-opacity:1;stroke-width:1.89415467"
     id="path4633"
     d="m 820.16896,131.64428 a 55.801796,55.801796 0 0 0 -35.19339,-13.52426 c -9.73596,0 -22.72986,5.68246 -22.72986,17.04739 0,11.89529 14.35769,16.51703 23.56328,19.49085 l 13.52427,4.09138 c 28.41232,8.3911 50.38451,22.72985 50.38451,55.78285 0,20.30534 -4.88692,41.17892 -21.13876,54.93048 -16.25185,13.75157 -37.37168,19.24462 -57.96114,19.24462 a 125.88552,125.88552 0 0 1 -71.78846,-23.31705 l 22.72986,-42.78895 c 13.25908,11.64905 28.98056,21.11982 47.14551,21.11982 12.44459,0 25.72262,-6.23177 25.72262,-20.58946 0,-14.88805 -20.8357,-20.02121 -32.20063,-23.26022 -33.31818,-9.47077 -55.25249,-18.16494 -55.25249,-57.71489 0,-41.4441 29.51093,-68.530513 70.42467,-68.530513 a 139.63708,139.63708 0 0 1 63.90877,16.801152 z" />
  <path
     inkscape:connector-curvature="0"
     style="fill:#000000;fill-opacity:1;stroke-width:1.89415467"
     id="path4635"
     d="M 956.11244,283.32819 H 903.07611 V 124.06767 H 859.15066 V 79.100434 H 1000 v 44.967236 h -43.88756 z" />
  <path
     d="M 322.32829,26.518701 A 26.688639,26.688639 0 1 1 295.81013,5.4103926e-4 26.423457,26.423457 0 0 1 322.32829,26.518701 Z"
     id="path4637"
     style="fill:#ef3340;fill-opacity:1;stroke-width:1.89415467"
     inkscape:connector-curvature="0" />
  <path
     d="M 395.44266,25.609511 A 25.741562,25.741562 0 1 1 369.83369,5.4103926e-4 25.47638,25.47638 0 0 1 395.44266,25.609511 Z"
     id="path4639"
     style="fill:#ef3340;fill-opacity:1;stroke-width:1.89415467"
     inkscape:connector-curvature="0" />
</svg>
